<svg viewBox="0 0 24 24" fill="none" xmlns="http://www.w3.org/2000/svg">
  <!-- Play button triangle - off-white -->
  <path
    d="M8 5L16 12L8 19V5Z"
    fill="#F5F5DC"
    style="filter: drop-shadow(0 2px 4px rgba(245, 245, 220, 0.3));"
  />
  
  <!-- Scissors outline - light teal -->
  <g stroke="#4DD0E1" stroke-width="1.5" stroke-linecap="round" stroke-linejoin="round" fill="none">
    <!-- Left handle -->
    <path d="M6 7C6 7 7 6 8 6C9 6 10 7 10 8C10 9 9 10 8 10C7 10 6 9 6 8" />
    <!-- Right handle -->
    <path d="M18 7C18 7 17 6 16 6C15 6 14 7 14 8C14 9 15 10 16 10C17 10 18 9 18 8" />
    <!-- Blade connection -->
    <path d="M10 8L12 12M14 8L12 12" />
    <!-- Handles to center -->
    <path d="M6 8L12 12M18 8L12 12" />
  </g>
  
  <!-- Sparkle - light teal, positioned top-right -->
  <g transform="translate(16, 4)">
    <path
      d="M2 2L3 4L4 2M2 4L4 4M3 1L3 3"
      stroke="#4DD0E1"
      stroke-width="1.2"
      stroke-linecap="round"
      fill="none"
    />
  </g>
</svg>

